<?xml version="1.0" encoding="UTF-8" standalone="no"?>
<svg
   version="1.0"
   width="556.00006"
   height="530.10205"
   id="svg2652"
   sodipodi:docname="rupaya-logo.svg"
   xmlns:inkscape="http://www.inkscape.org/namespaces/inkscape"
   xmlns:sodipodi="http://sodipodi.sourceforge.net/DTD/sodipodi-0.dtd"
   xmlns="http://www.w3.org/2000/svg"
   xmlns:svg="http://www.w3.org/2000/svg">
  <sodipodi:namedview
     id="namedview7"
     pagecolor="#ffffff"
     bordercolor="#000000"
     borderopacity="0.25"
     inkscape:showpageshadow="2"
     inkscape:pageopacity="0.0"
     inkscape:pagecheckerboard="0"
     inkscape:deskcolor="#d1d1d1"
     showgrid="false" />
  <defs
     id="defs2654" />
  <g
     id="layer1"
     transform="translate(-71.108284,-85.248126)">
    <path
       d="m 92.134538,614.39589 c 0,-0.52483 0.62988,-3.14078 1.39973,-5.81323 0.76986,-2.67244 1.62842,-5.84882 1.90792,-7.05859 0.2795,-1.20978 0.86406,-3.75504 1.29902,-5.65612 0.43496,-1.90109 1.01952,-4.44634 1.29902,-5.65612 0.27951,-1.20978 1.09619,-4.32065 1.81486,-6.91303 0.718672,-2.59239 1.678712,-6.41026 2.133422,-8.48418 0.45471,-2.0739 1.06818,-4.61916 1.36325,-5.65612 0.29508,-1.03695 0.73621,-3.158 0.9803,-4.71342 0.24409,-1.55544 0.87225,-4.3835 1.39592,-6.28458 0.52366,-1.90109 1.3808,-5.57757 1.90476,-8.16995 0.52396,-2.59238 1.25014,-5.98606 1.61373,-7.54149 1.1106,-4.75097 4.49873,-20.91029 6.65434,-31.7371 1.77728,-8.92665 12.03999,-67.08095 13.3642,-75.72913 0.60865,-3.97499 1.3911,-8.96658 1.73878,-11.09242 0.34768,-2.12583 0.92476,-6.01442 1.28241,-8.6413 0.35764,-2.62686 0.95922,-6.96787 1.33683,-9.64667 1.3262,-9.40812 2.593,-19.48231 4.5638,-36.29341 3.20246,-27.31735 3.82981,-33.44875 5.62635,-54.99004 0.9369,-11.23368 1.85248,-21.62679 2.03464,-23.09581 l 0.3312,-2.67095 h 8.18587 8.18587 v -25.13829 -25.1383 h -6.90283 -6.90282 l 0.38585,-5.49901 c 0.21222,-3.02445 0.57917,-13.70037 0.81544,-23.72427 l 0.4296,-18.22526 23.238,-0.1652 23.23801,-0.1652 -0.38983,7.39246 c -0.21441,4.06584 -0.68243,14.74541 -1.04004,23.73235 -1.41893,35.65851 -1.96121,47.51069 -2.57348,56.24694 -0.35126,5.01195 -0.80542,12.64771 -1.00926,16.96836 -0.34164,7.24175 -1.29452,21.94301 -3.01431,46.50586 -0.90063,12.86299 -5.01243,63.61807 -6.18593,76.35758 -0.50944,5.53043 -1.22944,13.59039 -1.60001,17.91104 -0.37057,4.32065 -0.98769,10.82517 -1.3714,14.45452 -0.38371,3.62934 -0.97672,9.28546 -1.31781,12.56915 -0.34108,3.28368 -0.91396,8.7984 -1.27306,12.25492 -0.3591,3.45651 -0.98131,9.53685 -1.38268,13.51184 -0.40138,3.97499 -1.13564,10.47952 -1.63171,14.45452 -0.49606,3.97499 -1.22888,10.62093 -1.6285,14.76875 -0.3996,4.14782 -1.29352,11.92498 -1.98648,17.28258 -0.69295,5.3576 -1.87818,14.8316 -2.63384,21.05333 -2.48593,20.46779 -7.17614,55.78016 -7.70031,57.97521 l -0.33767,1.41402 h -33.82057 c -29.805992,0 -33.820582,-0.11328 -33.820582,-0.95424 z m 428.215372,-0.45978 c -0.87912,-3.5774 -7.96746,-57.39859 -10.6565,-80.91391 -0.57313,-5.01195 -1.45365,-12.50631 -1.95671,-16.65413 -0.50306,-4.14781 -1.23904,-10.93515 -1.6355,-15.08297 -0.39646,-4.14782 -1.04053,-9.80394 -1.43125,-12.56915 -0.39073,-2.76522 -0.97612,-7.85572 -1.30086,-11.31224 -0.32474,-3.45652 -1.02633,-10.95087 -1.55907,-16.65412 -0.53274,-5.70326 -1.28956,-13.48042 -1.68183,-17.28259 -0.39227,-3.80216 -1.10414,-11.15511 -1.58194,-16.33989 -1.41731,-15.37986 -8.07798,-100.82107 -8.86757,-113.7508 -0.40105,-6.56739 -0.90889,-14.83946 -1.12853,-18.38239 l -0.39934,-6.44169 h 5.34337 5.34338 v -25.13829 -25.1383 h -6.50997 -6.50996 l -0.42654,-6.12747 c -0.50883,-7.3099 -1.66261,-33.66127 -1.67851,-38.3359 l -0.0112,-3.2994 h 22.97001 22.97002 l 0.36458,6.44169 c 0.20053,3.54292 0.68835,16.33989 1.08406,28.4377 0.69943,21.38386 1.93377,44.91282 3.2969,62.84575 0.36783,4.83911 0.95663,12.61627 1.30844,17.28257 0.73069,9.69182 1.13799,14.30723 1.96882,22.31024 0.32296,3.11087 0.92299,9.0498 1.33342,13.19762 1.7125,17.30694 6.67141,57.84372 8.53366,69.75878 0.32414,2.0739 0.88187,5.89178 1.2394,8.48417 2.22751,16.15118 12.71268,76.97743 15.92494,92.38325 0.75676,3.62935 1.91499,9.28546 2.57385,12.56915 2.44408,12.18105 4.76647,23.06402 5.83381,27.33791 1.0409,4.16804 2.03402,8.60339 2.74398,12.25492 0.36962,1.90108 0.94608,4.58774 1.28102,5.97034 2.24616,9.27198 3.4905,14.2686 4.30399,17.28258 0.51311,1.90108 1.28718,5.01195 1.72016,6.91303 0.43298,1.90109 1.37037,5.57756 2.08308,8.16995 0.71271,2.59239 1.52396,5.70325 1.80278,6.91304 0.27882,1.20978 0.72246,3.11871 0.98587,4.24208 l 0.47892,2.04249 H 554.60023 520.6974 Z M 103.32217,263.09971 v -21.05333 h 27.64001 27.64001 v 21.05333 21.05332 h -27.64001 -27.64001 z m 93.46061,18.06814 c 0.006,-1.64184 0.44663,-10.90373 0.97902,-20.58197 0.53238,-9.67825 0.97162,-17.80892 0.97609,-18.06816 0.004,-0.25923 66.64029,-0.47134 148.07961,-0.47134 h 148.07148 v 21.05333 21.05332 H 345.83036 196.77173 Z m 341.24581,0.31424 c -0.29867,-2.12539 -2.33769,-35.899 -2.33769,-38.72077 0,-0.5237 7.9218,-0.71494 29.6143,-0.71494 h 29.6143 v 21.05333 21.05332 H 566.66171 538.40394 Z M 321.15178,214.39425 v -23.88138 h 27.96905 27.96906 v 23.88138 23.88139 h -27.96906 -27.96905 z m -207.30008,-37.079 v -9.42686 h 235.26913 235.26914 v 9.42686 9.42687 H 349.12083 113.8517 Z m -4.93572,-16.29568 C 90.559408,148.94604 77.563818,130.35046 73.055741,109.70665 c -1.359033,-6.22342 -2.424325,-20.485642 -1.72802,-23.134989 0.421227,-1.602716 0.4975,-1.626685 2.317016,-0.72815 3.991301,1.971026 15.001281,5.603881 30.335523,10.009506 10.58971,3.04248 33.45012,7.399913 44.7505,8.529903 19.25838,1.92575 28.54083,2.00423 207.95817,1.7582 199.49234,-0.27354 179.88486,0.0612 205.98389,-3.51624 5.45319,-0.74746 31.88114,-6.639033 37.51144,-8.362397 8.22553,-2.517734 16.1625,-5.120975 20.99065,-6.884708 2.67703,-0.977921 5.16371,-1.603117 5.52593,-1.38932 1.0134,0.598104 -0.007,16.811085 -1.48453,23.577325 -4.56805,20.92506 -17.64368,39.61317 -36.02543,51.48865 l -4.74147,3.06322 -235.46338,-0.0341 -235.46338,-0.0341 z"
       id="path8570"
       style="fill:#ffffff" />
  </g>
</svg>